<svg width="128" height="34" viewBox="0 0 128 34" fill="none" xmlns="http://www.w3.org/2000/svg">
<path d="M19.3363 17.8276L14.0726 20.8783C13.8497 21.0075 13.5969 21.0757 13.3394 21.0761C13.082 21.0765 12.8289 21.0091 12.6056 20.8806C12.3823 20.752 12.1965 20.5669 12.0667 20.3438C11.937 20.1206 11.8679 19.8671 11.8663 19.6087V13.6234C11.8665 13.3629 11.935 13.1069 12.0648 12.8813C12.1947 12.6557 12.3814 12.4683 12.6063 12.338C12.8311 12.2077 13.0861 12.1391 13.3457 12.139C13.6053 12.1389 13.8604 12.2074 14.0853 12.3375L19.3363 15.3827C19.5498 15.5069 19.727 15.6852 19.8501 15.8997C19.9733 16.1143 20.0382 16.3576 20.0382 16.6052C20.0382 16.8528 19.9733 17.0961 19.8501 17.3106C19.727 17.5252 19.5498 17.7035 19.3363 17.8276Z" fill="white"/>
<path fill-rule="evenodd" clip-rule="evenodd" d="M33.5228 16.6669C33.3693 14.1277 31.2406 11.6502 29.403 9.77478C24.4067 4.68729 18.666 1.49695 12.3326 0.29264C10.9034 0.0254293 9.44623 -0.0592785 7.99585 0.0405331H7.92176C6.10034 0.067739 4.55358 0.958277 3.32123 2.68494C2.31836 4.08695 1.52691 6.0367 0.954102 8.47615C-0.00909474 12.6093 -0.000225567 16.787 1.94015e-05 16.9024L2.32095e-05 16.9045C0.010865 24.368 1.37874 29.4863 4.07473 32.1253C6.05336 34.0587 8.11149 34.0152 8.79091 33.9952H8.89571C20.2344 33.8247 33.5409 22.6141 33.5409 16.9571V16.9462C33.5409 16.8903 33.5359 16.8314 33.5308 16.7719C33.5278 16.737 33.5248 16.7018 33.5228 16.6669ZM28.7832 18.9812C28.6772 19.166 28.536 19.3279 28.3676 19.4577C28.1992 19.5876 28.0069 19.6828 27.8018 19.7379C27.5966 19.793 27.3827 19.8069 27.1722 19.7788C26.9617 19.7508 26.7588 19.6813 26.5751 19.5743L24.6868 18.4861L8.38796 27.9301C8.14333 28.0734 7.86527 28.1491 7.58205 28.1496C7.22911 28.1433 6.8878 28.0219 6.60966 27.8037C6.33153 27.5855 6.13166 27.2824 6.04025 26.9402C5.94884 26.598 5.97085 26.2352 6.10295 25.9066C6.23505 25.5781 6.47007 25.3016 6.77253 25.1189L8.63551 24.0306V5.50709C8.63504 5.28525 8.67999 5.06567 8.76755 4.86198C8.85512 4.65829 8.98344 4.47482 9.14456 4.32296C9.30568 4.1711 9.49616 4.05409 9.7042 3.97917C9.91223 3.90425 10.1334 3.87303 10.3539 3.88744C10.7726 3.9241 11.1619 4.11873 11.4432 4.4321C11.7245 4.74546 11.8771 5.15424 11.87 5.57601V7.29905L28.1869 16.7576C28.4335 16.8994 28.6383 17.1041 28.7808 17.3509C28.9233 17.5978 28.9983 17.878 28.9982 18.1632C28.9989 18.4501 28.9247 18.7321 28.7832 18.9812Z" fill="white"/>
<path fill-rule="evenodd" clip-rule="evenodd" d="M44.1062 13.0939H48.985L49.9897 15.3937H51.3648L47.1997 6.19269H45.9042L41.7481 15.3937H43.0979L44.1062 13.0939ZM46.551 7.53485L48.5261 12.0419L44.5742 12.0438L46.551 7.53485Z" fill="white"/>
<path fill-rule="evenodd" clip-rule="evenodd" d="M60.1286 9.40113C60.1286 11.3962 58.683 12.6078 56.305 12.6078H54.0391V15.3955H52.7291V6.20172H56.3087C58.6884 6.20172 60.1286 7.40241 60.1286 9.40113ZM58.8185 9.40113C58.8185 8.08618 57.9422 7.33711 56.2653 7.33711H54.0391V11.4615H56.2653C57.9349 11.4615 58.8185 10.7161 58.8185 9.40113Z" fill="white"/>
<path d="M63.3558 6.20172H62.053L62.0476 15.4027H63.3558V6.20172Z" fill="white"/>
<path d="M50.2283 27.0595L50.2156 20.5591L47.0028 25.9821H46.4192L43.2064 20.6026V27.0595H41.9867V18.1432H43.0275L46.7318 24.4151L50.3873 18.1432H51.4299L51.448 27.0595H50.2283Z" fill="white"/>
<path fill-rule="evenodd" clip-rule="evenodd" d="M59.2685 27.0596V22.9878C59.2685 21.1396 58.2277 20.2473 56.3792 20.2473C55.3004 20.2473 54.2958 20.552 53.5983 21.1124L54.1151 22.0175C54.7241 21.5402 55.4764 21.2844 56.2491 21.292C57.4598 21.292 58.0561 21.8923 58.0561 22.9243V23.1674H56.1262C54.1151 23.1674 53.4158 24.0543 53.4158 25.1425C53.4158 26.3214 54.3807 27.1376 55.9058 27.1376C56.9592 27.1376 57.7091 26.7803 58.1157 26.1673V27.0596H59.2685ZM58.0488 24.0579V25.001C57.7543 25.7791 57.0333 26.1908 56.1063 26.1908C55.1794 26.1908 54.621 25.7791 54.621 25.1026C54.621 24.5295 54.9643 24.0579 56.1696 24.0579H58.0488Z" fill="white"/>
<path d="M67.9148 23.1782V27.0596H66.6969V23.3178C66.6969 21.992 66.0356 21.3427 64.8809 21.3427C63.5853 21.3427 62.7469 22.1208 62.7469 23.5863V27.0596H61.529V20.3107H62.6963V21.33C63.1914 20.6426 64.0552 20.2418 65.1213 20.2418C66.7602 20.2472 67.9148 21.1904 67.9148 23.1782Z" fill="white"/>
<path fill-rule="evenodd" clip-rule="evenodd" d="M75.5095 27.0595V22.9877C75.5095 21.1396 74.4668 20.2472 72.6273 20.2345C71.5486 20.2345 70.5457 20.5392 69.8464 21.0997L70.3542 22.0174C70.9632 21.5401 71.7156 21.2843 72.4882 21.2919C73.6989 21.2919 74.2952 21.8923 74.2952 22.9243V23.1673H72.3653C70.3524 23.1673 69.6549 24.0542 69.6549 25.1424C69.6549 26.3214 70.6198 27.1375 72.1431 27.1375C73.1983 27.1375 73.9464 26.7802 74.353 26.1672V27.0595H75.5095ZM74.2898 24.0578V25.001C73.9844 25.7791 73.2742 26.1908 72.3473 26.1908C71.4203 26.1908 70.8601 25.7791 70.8601 25.1025C70.8601 24.5294 71.2035 24.0578 72.4105 24.0578H74.2898Z" fill="white"/>
<path fill-rule="evenodd" clip-rule="evenodd" d="M84.2444 20.3107V26.1527C84.2444 28.5377 83.0373 29.6205 80.7515 29.6205C79.521 29.6205 78.276 29.2759 77.5406 28.6139L78.1242 27.6708C78.8619 28.2523 79.7757 28.5627 80.7136 28.5504C82.3019 28.5504 83.0247 27.8104 83.0247 26.2815V25.7374C82.441 26.4375 81.5647 26.7821 80.5997 26.7821C78.6573 26.7821 77.1846 25.4562 77.1846 23.5065C77.1846 21.5567 78.6573 20.2418 80.5997 20.2418C81.6026 20.2418 82.5169 20.6045 83.0898 21.35V20.3053L84.2444 20.3107ZM83.0518 23.5101C83.0518 22.197 82.0869 21.3173 80.7407 21.3173C79.3945 21.3173 78.4169 22.197 78.4169 23.5101C78.4169 24.8232 79.3837 25.7156 80.7407 25.7156C82.0977 25.7156 83.0518 24.8105 83.0518 23.5101Z" fill="white"/>
<path fill-rule="evenodd" clip-rule="evenodd" d="M87.1644 24.0959H92.6287L92.6325 24.0466L92.636 24.001L92.6361 24.0004L92.6361 24.0001C92.6437 23.9032 92.6517 23.8003 92.6558 23.7205C92.6558 21.6438 91.2735 20.2418 89.3292 20.2418C87.3849 20.2418 85.9501 21.6837 85.9501 23.6878C85.9501 25.692 87.3957 27.143 89.5641 27.143C90.6826 27.143 91.6096 26.7603 92.2185 26.0457L91.5445 25.2549C91.2991 25.5242 90.9982 25.7368 90.6628 25.8777C90.3274 26.0186 89.9654 26.0846 89.602 26.0711C88.2685 26.0711 87.3162 25.2821 87.1644 24.0959ZM91.4849 23.2163H87.168C87.2196 22.6776 87.4693 22.1774 87.8683 21.8135C88.2674 21.4496 88.7873 21.248 89.3264 21.248C89.8656 21.248 90.3855 21.4496 90.7846 21.8135C91.1836 22.1774 91.4333 22.6776 91.4849 23.2163Z" fill="white"/>
<path d="M105.512 23.1782V27.0596H104.294V23.3179C104.294 21.9921 103.658 21.3428 102.554 21.3428C101.335 21.3428 100.536 22.1208 100.536 23.5863V27.0596H99.3145V23.3179C99.3145 21.9921 98.6802 21.3428 97.5744 21.3428C96.3565 21.3428 95.556 22.1208 95.556 23.5863V27.0596H94.3363V20.3107H95.5054V21.3174C95.9878 20.6281 96.8136 20.2473 97.8292 20.2473C98.8447 20.2473 99.721 20.6554 100.166 21.4951C100.673 20.7315 101.611 20.2473 102.755 20.2473C104.396 20.2473 105.512 21.1904 105.512 23.1782Z" fill="white"/>
<path fill-rule="evenodd" clip-rule="evenodd" d="M108.394 24.0959H113.855C113.868 23.9762 113.88 23.8275 113.886 23.7205C113.886 21.6438 112.504 20.2418 110.559 20.2418C108.615 20.2418 107.18 21.6837 107.18 23.6878C107.18 25.692 108.626 27.143 110.794 27.143C111.913 27.143 112.84 26.7603 113.449 26.0457L112.775 25.2549C112.529 25.5242 112.228 25.7368 111.893 25.8777C111.557 26.0186 111.195 26.0846 110.832 26.0711C109.499 26.0711 108.546 25.2821 108.394 24.0959ZM112.711 23.2163H108.394C108.446 22.6776 108.696 22.1774 109.095 21.8135C109.494 21.4496 110.014 21.248 110.553 21.248C111.092 21.248 111.612 21.4496 112.011 21.8135C112.41 22.1774 112.66 22.6776 112.711 23.2163Z" fill="white"/>
<path d="M121.956 23.1782V27.0596H120.736V23.3178C120.736 21.992 120.076 21.3427 118.929 21.3427C117.635 21.3427 116.797 22.1208 116.797 23.5863V27.0596H115.577V20.3107H116.746V21.33C117.241 20.6426 118.105 20.2418 119.171 20.2418C120.801 20.2472 121.956 21.1904 121.956 23.1782Z" fill="white"/>
<path d="M126.527 27.1429C127.058 27.1603 127.578 26.9938 128 26.6713L127.619 25.7917C127.346 26.0012 127.01 26.113 126.666 26.1091C125.992 26.1091 125.613 25.701 125.613 24.9755V21.3172H127.543V20.3106H125.613V18.8324H124.393V20.3106H123.249V21.3172H124.393V25.0263C124.393 26.3902 125.168 27.1429 126.527 27.1429Z" fill="white"/>
</svg>
